<svg xmlns="http://www.w3.org/2000/svg" viewBox="0 0 612.66 69"><defs><style>.cls-1{font-size:30px;fill:#454c48;font-family:Cabin-Regular, Cabin;}.cls-2{letter-spacing:-0.01em;}.cls-3{letter-spacing:-0.01em;}.cls-4{letter-spacing:-0.01em;}.cls-5{letter-spacing:0em;}.cls-6{letter-spacing:-0.02em;}.cls-7{letter-spacing:0em;}.cls-8{letter-spacing:-0.01em;}.cls-9{letter-spacing:-0.02em;}.cls-10{letter-spacing:0em;}.cls-11{letter-spacing:-0.01em;}.cls-12{letter-spacing:-0.01em;}.cls-13{letter-spacing:-0.01em;}</style></defs><title>explain</title><g id="레이어_2" data-name="레이어 2"><g id="레이어_1-2" data-name="레이어 1"><text class="cls-1" transform="translate(0 25.5)"><tspan class="cls-2">I</tspan><tspan x="7.38" y="0">t</tspan><tspan class="cls-3" x="17.49" y="0">&apos;</tspan><tspan x="22.59" y="0">s n</tspan><tspan class="cls-4" x="58.53" y="0">o</tspan><tspan x="74.82" y="0">t easy </tspan><tspan class="cls-5" x="155.76" y="0">t</tspan><tspan x="165.75" y="0">o ma</tspan><tspan class="cls-6" x="229.71" y="0">k</tspan><tspan x="242.49" y="0">e mon</tspan><tspan class="cls-7" x="324.17" y="0">e</tspan><tspan x="339.38" y="0">y f</tspan><tspan class="cls-8" x="371.21" y="0">r</tspan><tspan x="380.45" y="0">om s</tspan><tspan class="cls-5" x="442.43" y="0">t</tspan><tspan x="452.42" y="0">ocks.</tspan><tspan class="cls-9" x="0" y="36">S</tspan><tspan x="17.07" y="36">tart with the i</tspan><tspan class="cls-10" x="184.14" y="36">t</tspan><tspan x="194.13" y="36">ems </tspan><tspan class="cls-11" x="254.97" y="36">r</tspan><tspan x="264.21" y="36">e</tspan><tspan class="cls-4" x="279.57" y="36">c</tspan><tspan x="292.98" y="36">ommended </tspan><tspan class="cls-12" x="449.63" y="36">b</tspan><tspan x="465.95" y="36">y AI </tspan><tspan class="cls-7" x="520.73" y="36">Q</tspan><tspan x="543.62" y="36">ua</tspan><tspan class="cls-13" x="573.74" y="36">n</tspan><tspan x="590.27" y="36">t.</tspan></text></g></g></svg>